<svg width="21" height="16" viewBox="0 0 21 16" fill="none" xmlns="http://www.w3.org/2000/svg">
<path d="M4.88503 15.054C3.38758 15.054 2.23193 14.5331 1.4181 13.4914C0.604267 12.4171 0.19735 11.0336 0.19735 9.34085C0.19735 7.35509 0.718204 5.54838 1.75991 3.92072C2.83417 2.2605 4.39673 0.974639 6.44759 0.0631462L9.52388 2.40699C8.09153 2.92784 6.88706 3.64401 5.91046 4.55551C4.93386 5.43445 4.28279 6.42732 3.95726 7.53414L4.15258 7.68063C4.47811 7.35509 4.95014 7.19233 5.56865 7.19233C6.5127 7.19233 7.34281 7.51786 8.05898 8.16893C8.77515 8.81999 9.13324 9.74777 9.13324 10.9522C9.13324 12.1893 8.7426 13.1821 7.96132 13.9309C7.18004 14.6796 6.15461 15.054 4.88503 15.054ZM15.823 15.054C14.3255 15.054 13.1699 14.5331 12.356 13.4914C11.5422 12.4171 11.1353 11.0336 11.1353 9.34085C11.1353 7.35509 11.6561 5.54838 12.6978 3.92072C13.7721 2.2605 15.3347 0.974639 17.3855 0.0631462L20.4618 2.40699C19.0295 2.92784 17.825 3.64401 16.8484 4.55551C15.8718 5.43445 15.2207 6.42732 14.8952 7.53414L15.0905 7.68063C15.416 7.35509 15.8881 7.19233 16.5066 7.19233C17.4506 7.19233 18.2807 7.51786 18.9969 8.16893C19.7131 8.81999 20.0712 9.74777 20.0712 10.9522C20.0712 12.1893 19.6805 13.1821 18.8992 13.9309C18.118 14.6796 17.0925 15.054 15.823 15.054Z" fill="#1D1D1B"/>
</svg>
