<svg width="24" height="25" viewBox="0 0 24 25" fill="none" xmlns="http://www.w3.org/2000/svg">
<path fill-rule="evenodd" clip-rule="evenodd" d="M12 3.60315C9.5556 3.60315 9.2496 3.61335 8.2896 3.65715C7.3314 3.70095 6.6768 3.85335 6.1044 4.07595C5.5044 4.30155 4.9602 4.65555 4.5102 5.11395C4.05253 5.56343 3.69831 6.10725 3.4722 6.70755C3.2508 7.27995 3.0978 7.93515 3.054 8.89335C3.0108 9.85275 3 10.1581 3 12.6031C3 15.0482 3.0102 15.3535 3.054 16.3135C3.0978 17.2717 3.2502 17.9263 3.4728 18.4987C3.6984 19.0988 4.0524 19.643 4.5108 20.093C4.96029 20.5506 5.50411 20.9048 6.1044 21.1309C6.6768 21.3529 7.3314 21.5054 8.2896 21.5492C9.2496 21.593 9.5556 21.6031 12 21.6031C14.4444 21.6031 14.7504 21.593 15.7104 21.5492C16.6686 21.5054 17.3232 21.3529 17.8956 21.1304C18.4956 20.9048 19.0398 20.5508 19.4898 20.0924C19.9475 19.6429 20.3017 19.0991 20.5278 18.4987C20.7498 17.9263 20.9022 17.2717 20.946 16.3135C20.9898 15.3535 21 15.0476 21 12.6031C21 10.1587 20.9898 9.85275 20.946 8.89275C20.9022 7.93455 20.7498 7.27995 20.5272 6.70755C20.3012 6.10699 19.947 5.56294 19.4892 5.11335C19.0397 4.65568 18.4959 4.30146 17.8956 4.07535C17.3232 3.85395 16.668 3.70095 15.7098 3.65715C14.7504 3.61395 14.445 3.60315 12 3.60315ZM12 5.22495C14.403 5.22495 14.688 5.23395 15.6372 5.27715C16.5144 5.31735 16.9908 5.46315 17.3082 5.58735C17.7282 5.74995 18.0282 5.94555 18.3432 6.25995C18.6582 6.57495 18.8532 6.87495 19.0158 7.29495C19.1394 7.61235 19.2858 8.08875 19.326 8.96595C19.3692 9.91515 19.3782 10.2001 19.3782 12.6031C19.3782 15.0062 19.3692 15.2912 19.326 16.2403C19.2858 17.1175 19.14 17.594 19.0158 17.9114C18.8718 18.3023 18.6419 18.6559 18.3432 18.9464C18.0528 19.2451 17.6992 19.475 17.3082 19.6189C16.9908 19.7425 16.5144 19.889 15.6372 19.9291C14.688 19.9723 14.4036 19.9813 12 19.9813C9.5964 19.9813 9.312 19.9723 8.3628 19.9291C7.4856 19.889 7.0092 19.7432 6.6918 19.6189C6.30087 19.4749 5.9472 19.2451 5.6568 18.9464C5.35811 18.6559 5.12828 18.3023 4.9842 17.9114C4.8606 17.594 4.7142 17.1175 4.674 16.2403C4.6308 15.2912 4.6218 15.0062 4.6218 12.6031C4.6218 10.2001 4.6308 9.91515 4.674 8.96595C4.7142 8.08875 4.86 7.61235 4.9842 7.29495C5.1468 6.87495 5.3424 6.57495 5.6568 6.25995C5.94716 5.96118 6.30085 5.73133 6.6918 5.58735C7.0092 5.46375 7.4856 5.31735 8.3628 5.27715C9.312 5.23395 9.597 5.22495 12 5.22495Z" fill="#1D1D1B"/>
<path fill-rule="evenodd" clip-rule="evenodd" d="M12 15.6062C11.6057 15.6062 11.2152 15.5285 10.8508 15.3776C10.4865 15.2267 10.1554 15.0055 9.87658 14.7266C9.59773 14.4478 9.37653 14.1167 9.22561 13.7524C9.0747 13.388 8.99702 12.9975 8.99702 12.6032C8.99702 12.2088 9.0747 11.8183 9.22561 11.454C9.37653 11.0896 9.59773 10.7586 9.87658 10.4797C10.1554 10.2009 10.4865 9.97969 10.8508 9.82877C11.2152 9.67786 11.6057 9.60018 12 9.60018C12.7965 9.60018 13.5603 9.91657 14.1235 10.4797C14.6866 11.0429 15.003 11.8067 15.003 12.6032C15.003 13.3996 14.6866 14.1635 14.1235 14.7266C13.5603 15.2898 12.7965 15.6062 12 15.6062ZM12 7.97718C10.7731 7.97718 9.59649 8.46456 8.72895 9.33211C7.8614 10.1996 7.37402 11.3763 7.37402 12.6032C7.37402 13.8301 7.8614 15.0067 8.72895 15.8743C9.59649 16.7418 10.7731 17.2292 12 17.2292C13.2269 17.2292 14.4036 16.7418 15.2711 15.8743C16.1386 15.0067 16.626 13.8301 16.626 12.6032C16.626 11.3763 16.1386 10.1996 15.2711 9.33211C14.4036 8.46456 13.2269 7.97718 12 7.97718ZM17.9718 7.89318C17.9718 8.1832 17.8566 8.46133 17.6515 8.6664C17.4465 8.87148 17.1683 8.98668 16.8783 8.98668C16.5883 8.98668 16.3102 8.87148 16.1051 8.6664C15.9 8.46133 15.7848 8.1832 15.7848 7.89318C15.7848 7.60317 15.9 7.32503 16.1051 7.11996C16.3102 6.91489 16.5883 6.79968 16.8783 6.79968C17.1683 6.79968 17.4465 6.91489 17.6515 7.11996C17.8566 7.32503 17.9718 7.60317 17.9718 7.89318Z" fill="#1D1D1B"/>
</svg>
