<svg width="18" height="19" viewBox="0 0 18 19" fill="none" xmlns="http://www.w3.org/2000/svg">
<path d="M18 1.92668V17.2796C18 17.6306 17.8606 17.9673 17.6123 18.2155C17.3641 18.4637 17.0275 18.6031 16.6765 18.6031H1.32353C0.972508 18.6032 0.635863 18.4637 0.387653 18.2155C0.139443 17.9673 0 17.6306 0 17.2796L0 1.92668C0 1.57566 0.139443 1.23901 0.387653 0.990802C0.635863 0.742592 0.972508 0.603149 1.32353 0.603149L16.6765 0.603149C17.0275 0.603149 17.3641 0.742592 17.6123 0.990802C17.8606 1.23901 18 1.57566 18 1.92668ZM5.29412 7.4855H2.64706V15.9561H5.29412V7.4855ZM5.53235 4.57374C5.53375 4.37351 5.49569 4.17497 5.42035 3.98945C5.34502 3.80393 5.23387 3.63506 5.09328 3.4925C4.95268 3.34993 4.78537 3.23645 4.60091 3.15855C4.41646 3.08064 4.21846 3.03983 4.01824 3.03844H3.97059C3.5634 3.03844 3.17289 3.2002 2.88497 3.48812C2.59705 3.77604 2.43529 4.16655 2.43529 4.57374C2.43529 4.98092 2.59705 5.37143 2.88497 5.65935C3.17289 5.94728 3.5634 6.10903 3.97059 6.10903C4.17083 6.11396 4.37008 6.07938 4.55696 6.00727C4.74383 5.93517 4.91467 5.82695 5.0597 5.6888C5.20474 5.55064 5.32113 5.38527 5.40223 5.20212C5.48333 5.01897 5.52755 4.82163 5.53235 4.62139V4.57374ZM15.3529 10.8102C15.3529 8.26374 13.7329 7.27374 12.1235 7.27374C11.5966 7.24735 11.0719 7.35959 10.6019 7.59925C10.1318 7.83892 9.73285 8.19763 9.44471 8.63962H9.37059V7.4855H6.88235V15.9561H9.52941V11.4508C9.49115 10.9894 9.63649 10.5315 9.93388 10.1766C10.2313 9.82175 10.6567 9.59855 11.1176 9.5555H11.2182C12.06 9.5555 12.6847 10.0849 12.6847 11.419V15.9561H15.3318L15.3529 10.8102Z" fill="#1D1D1B"/>
</svg>
