<svg width="24" height="25" viewBox="0 0 24 25" fill="none" xmlns="http://www.w3.org/2000/svg">
<path d="M18.1154 6.61209C17.0381 5.90966 16.2605 4.78577 16.018 3.47561C15.9656 3.19254 15.9368 2.90122 15.9368 2.60315H12.4984L12.4929 16.3831C12.435 17.9262 11.165 19.1647 9.60804 19.1647C9.12413 19.1647 8.66848 19.0438 8.26729 18.8326C7.3473 18.3485 6.71771 17.3842 6.71771 16.2744C6.71771 14.6806 8.01437 13.384 9.60804 13.384C9.90553 13.384 10.1909 13.4331 10.4609 13.5176V10.0074C10.1815 9.96935 9.89765 9.94557 9.60804 9.94557C6.11829 9.94557 3.2793 12.7847 3.2793 16.2744C3.2793 18.4156 4.34905 20.3104 5.98108 21.4561C7.00906 22.1778 8.25948 22.6031 9.60804 22.6031C13.0978 22.6031 15.9368 19.7642 15.9368 16.2744V9.28682C17.2854 10.2548 18.9376 10.8252 20.7205 10.8252V7.38674C19.7601 7.38674 18.8656 7.10123 18.1154 6.61209Z" fill="#1D1D1B"/>
</svg>
